PathFileType	4	(X/Y/Z)	Patient4_TMGait_0pt6_02_right_46.trc.trc
DataRate	CameraRate	NumFrames	NumMarkers	Units	OrigDataRate	OrigDataStartFrame	OrigNumFrames
81.395348837209	81.395348837209	4	33	mm	81.395348837209	18	       141
Frame#	Time	Sacral			L.Shoulder			Chest			R.Shoulder			Neck			R.ASIS			L.ASIS			R.Thigh.Superior			R.Thigh.Lateral			R.Thigh.Inferior			R.Patella			L.Thigh.Superior			L.Thigh.Lateral			L.Thigh.Inferior			L.Patella			L.Shank.Superior			L.Shank.Lateral			L.Shank.Inferior			R.Shank.Superior			R.Shank.Lateral			R.Shank.Inferior			R.Heel			R.Midfoot.Superior			R.Midfoot.Lateral			R.Toe			L.Heel			L.Midfoot.Lateral			L.Midfoot.Superior			L.Toe			L.Elbow			L.Wrist			R.Elbow			R.Wrist			
		X1	Y1	Z1	X2	Y2	Z2	X3	Y3	Z3	X4	Y4	Z4	X5	Y5	Z5	X6	Y6	Z6	X7	Y7	Z7	X8	Y8	Z8	X9	Y9	Z9	X10	Y10	Z10	X11	Y11	Z11	X12	Y12	Z12	X13	Y13	Z13	X14	Y14	Z14	X15	Y15	Z15	X16	Y16	Z16	X17	Y17	Z17	X18	Y18	Z18	X19	Y19	Z19	X20	Y20	Z20	X21	Y21	Z21	X22	Y22	Z22	X23	Y23	Z23	X24	Y24	Z24	X25	Y25	Z25	X26	Y26	Z26	X27	Y27	Z27	X28	Y28	Z28	X29	Y29	Z29	X30	Y30	Z30	X31	Y31	Z31	X32	Y32	Z32	X33	Y33	Z33	

18	55.738857142857	821.181342991956	1007.107901060101	443.191259507748	1037.012105597632	1433.171983151192	282.285434371713	1116.241267524661	1353.325844034421	450.946945374280	1018.770587773101	1430.540582115099	614.971054602699	1020.340668365819	1491.728891389791	434.114029056891	1040.645436843153	942.396862822897	574.391596264679	1042.687389273636	961.320937724876	296.849838157595	1128.204619231984	787.299692177074	543.596491656653	1100.526621752166	663.260117149213	622.331158666038	1192.957303851920	632.996045097748	543.118552221211	1235.826246889957	544.786375132903	564.545919917773	1051.430367038906	735.718591795602	331.783364580034	940.222993501614	637.299332087745	267.542984594922	998.954332307364	547.253648449239	337.353875890963	985.841810202506	482.420875821485	348.408812117391	957.975104925861	414.761307990234	340.435318140059	866.112289674728	302.188956988079	289.258951683750	908.584594614131	192.601620669571	369.075380326479	1210.681337856296	454.070484059214	576.292487154531	1147.981364973568	348.061716842103	645.004766161397	1206.389365182676	254.052591831334	594.913769837207	1097.710654409628	73.011522940674	576.334930790389	1265.706865540924	140.136440432302	610.243748062824	1184.701476633416	67.553797713184	646.825906072998	1388.443611062084	96.349611684818	630.443229221222	775.358832818811	38.586430221225	413.209986225216	850.313761672016	35.428062537393	333.513569824141	933.337034020549	96.049596991420	361.141745809367	1062.565643026040	42.186370477375	335.668030908579	1144.860397958021	1142.678218231333	101.718129621454	1387.719054180886	1080.607228874024	167.653522570613	850.709990093334	1129.364877292039	721.696488734124	794.028581549570	874.311290754884	732.377736344035	
19	55.751142857143	822.079553304997	1005.076577190036	444.772011219011	1036.162875508339	1431.444758754845	283.339346719196	1115.572235101145	1352.385352233316	452.223394127484	1017.813838472193	1429.894674692829	615.879809750923	1019.286869202169	1490.321236747084	434.951583059454	1041.710338481490	940.217015587078	575.747586148463	1043.648001407639	960.318079705471	297.945667921685	1127.033402410666	781.838304601227	545.463511713215	1095.999443786331	657.891299315681	623.138706888638	1188.296361900421	626.465545539828	544.249066997032	1229.619330766754	539.395005143840	564.894112286972	1050.366277734165	734.167413983502	332.646540752008	938.023847094638	636.785746153790	268.025060065486	995.523626662246	546.123952422473	337.848146477708	981.726130980865	481.295603375379	348.714514816191	953.270066774782	413.935121029812	340.700297106675	860.470884733413	302.133333916289	289.352191110069	901.967777172785	192.129828158702	369.122854218018	1206.314459405994	449.004226786728	576.166836084252	1145.555339735454	340.915254849597	643.305190723110	1207.069193971279	248.776520339993	593.031205634813	1103.428744570701	65.039973622899	572.056633663422	1269.567944917050	136.071604012138	607.622788693569	1190.021460523514	61.417975658587	643.174596940412	1393.355756972752	95.197334739184	628.532852154115	767.921851938464	38.537161688454	413.198200653596	842.862950765973	35.358955034375	333.497799996674	925.892424007450	95.930300972871	361.181423154357	1055.117195667932	42.110067933167	335.701077758612	1146.273740722783	1142.574693650420	102.739057620768	1389.969578392650	1089.357339866140	171.421294220573	844.017632046919	1133.252554920668	722.399257149901	782.549149057317	879.197501159076	732.559799700811	
20	55.763428571429	823.180629014271	1002.965068973131	446.508075723376	1035.213557382184	1429.647476349182	284.461117087551	1114.944934450482	1351.482076835351	453.551862604230	1016.936371465415	1429.204683606146	616.902931896292	1018.171984768225	1488.875499436465	435.872786783152	1042.965470333275	937.978722208658	577.275507584929	1044.859160839367	959.184482016761	299.315071630959	1126.118606375352	776.283137801491	547.631176977554	1091.427571436799	652.444440652142	623.821589941483	1183.728622156846	619.950869986939	545.405217745441	1223.225403207764	533.722744921437	565.108882133528	1049.729200779635	732.554215930865	333.665679225665	936.319838770834	636.158466804357	268.731790247447	992.679534196543	544.904602888666	338.536080884224	978.184716982019	480.006465612053	349.252456362168	949.079796792979	412.942197383683	341.157986246660	855.175499696239	302.085325533076	289.586211801645	895.516262146718	191.571024650105	369.227215222833	1201.308213569814	443.593261770927	575.789537486950	1141.608622644837	333.877146301550	641.013821089692	1205.620824379075	243.329053534130	590.659803872044	1105.613901955844	58.284497865038	567.083992240634	1270.363315469827	131.387618518561	604.301396902213	1191.626098506085	55.694950324690	638.888419278825	1394.693195967548	92.240323499185	626.016575968025	760.492511188706	38.485222159777	413.156816061404	835.427796941863	35.287618980779	333.469683885926	918.461570799430	95.811448013655	361.223847248762	1047.684145335699	41.994885086904	335.725989295123	1147.180954668819	1142.042055860287	103.962954641147	1391.351749732230	1097.066470825310	175.199491549878	838.415467772221	1136.521221113879	723.078918477728	772.849549256194	883.314493044796	732.697270588500	
21	55.775714285714	824.443308598460	1000.859408916464	448.372064346331	1034.228357263601	1427.828888235767	285.658043103021	1114.395213074450	1350.633450461818	454.943117164272	1016.166861362380	1428.481597189832	618.057022724859	1017.055959509432	1487.436692957125	436.894508807607	1044.356838973933	935.765904465159	578.979393731632	1046.286420142180	957.949317752140	300.985704251489	1125.472226901566	770.816822260116	550.069902334931	1086.887518701301	647.098411638715	624.332594143120	1179.345176720009	613.688837392450	546.537081399142	1216.801716030421	528.009105301152	565.103028895596	1049.496180623859	730.900887069316	334.851340725095	935.082672520450	635.430419532091	269.692042600831	990.411654011670	543.605120492294	339.438768563320	975.219114249361	478.555495450825	350.050014828018	945.395235612276	411.790003926730	341.834533711250	850.223087854005	302.059912727640	289.983407151991	889.227758556134	190.941210328317	369.402364281106	1195.866193932179	438.054514296865	575.130578881657	1136.475509713274	327.133807350872	638.292239711722	1202.343061926357	237.849785951660	587.910525611408	1104.533037760074	52.750375835879	561.794922552149	1268.443199593423	126.238863218338	600.435471567307	1189.888762855054	50.523448882158	634.284551702158	1392.899937914498	87.695858805929	623.001774478498	753.068969120891	38.449225599207	413.081721417531	828.011965414858	35.222290851459	333.431235547991	911.052308985638	95.704756265349	361.266127164609	1040.268973579155	41.842766123184	335.740111894057	1147.566583999621	1141.072722955556	105.382176015486	1391.926929799284	1103.670101701995	178.955545116187	833.960653842924	1139.044551467584	723.765667533184	764.955267225252	886.548030396477	732.832332924314	
